<svg width="23" height="20" viewBox="0 0 23 20" fill="none" xmlns="http://www.w3.org/2000/svg">
<path fill-rule="evenodd" clip-rule="evenodd" d="M21.1374 10.5935C21.4322 10.594 21.7152 10.4833 21.924 10.2858C22.1329 10.0882 22.2505 9.81991 22.251 9.53996C22.2515 9.26001 22.1348 8.99132 21.9267 8.79299C21.7186 8.59466 21.436 8.48294 21.1412 8.48241L1.13079 8.44642C0.835947 8.44589 0.552983 8.55659 0.344145 8.75417C0.135307 8.95175 0.0177018 9.22002 0.0171983 9.49997C0.0166948 9.77992 0.133334 10.0486 0.34146 10.2469C0.549586 10.4453 0.83215 10.557 1.12699 10.5575L21.1374 10.5935ZM17.8213 0.0319802C18.411 0.0330408 18.9761 0.256478 19.3924 0.653137C19.8086 1.0498 20.0419 1.58719 20.0409 2.14709L20.0333 6.3693L17.8099 6.3653L17.8175 2.14309L4.47724 2.11909L4.46965 6.34131L2.24627 6.33731L2.25387 2.1151C2.25487 1.5552 2.49009 1.01865 2.90776 0.623488C3.32544 0.228329 3.89136 0.0069263 4.48104 0.00798687L17.8213 0.0319802ZM18.9121 11.6451C19.207 11.6456 19.4895 11.7573 19.6976 11.9557C19.9058 12.154 20.0224 12.4227 20.0219 12.7026L20.02 13.7582C20.0195 14.0381 19.9019 14.3064 19.6931 14.504C19.4842 14.7016 19.2013 14.8123 18.9064 14.8117C18.6116 14.8112 18.329 14.6995 18.1209 14.5012C17.9128 14.3028 17.7961 14.0341 17.7966 13.7542L17.7985 12.6986C17.799 12.4187 17.9166 12.1504 18.1255 11.9528C18.3343 11.7552 18.6173 11.6445 18.9121 11.6451ZM18.9045 15.8673C19.1994 15.8678 19.4819 15.9795 19.69 16.1779C19.8982 16.3762 20.0148 16.6449 20.0143 16.9248C20.0133 17.4847 19.7781 18.0213 19.3604 18.4164C18.9427 18.8116 18.3768 19.033 17.7871 19.032C17.4923 19.0314 17.2097 18.9197 17.0016 18.7214C16.7935 18.523 16.6768 18.2543 16.6773 17.9744C16.6779 17.6944 16.7955 17.4262 17.0043 17.2286C17.2131 17.031 17.4961 16.9203 17.7909 16.9208C17.7914 16.6409 17.909 16.3726 18.1179 16.175C18.3267 15.9775 18.6097 15.8668 18.9045 15.8673ZM15.5657 17.9724C15.5652 18.2523 15.4475 18.5206 15.2387 18.7182C15.0299 18.9158 14.7469 19.0265 14.4521 19.026L13.3404 19.024C13.0455 19.0234 12.763 18.9117 12.5549 18.7134C12.3467 18.515 12.2301 18.2464 12.2306 17.9664C12.2311 17.6864 12.3487 17.4182 12.5575 17.2206C12.7664 17.023 13.0493 16.9123 13.3442 16.9128L14.4559 16.9148C14.7507 16.9154 15.0333 17.0271 15.2414 17.2254C15.4495 17.4238 15.5662 17.6924 15.5657 17.9724ZM10.0072 17.9624C10.0067 18.2424 9.8891 18.5106 9.68026 18.7082C9.47143 18.9058 9.18846 19.0165 8.89362 19.016L7.78194 19.014C7.4871 19.0134 7.20454 18.9017 6.99641 18.7034C6.78828 18.505 6.67164 18.2364 6.67214 17.9564C6.67265 17.6765 6.79026 17.4082 6.99909 17.2106C7.20793 17.013 7.49089 16.9023 7.78573 16.9028L8.89742 16.9048C9.19226 16.9054 9.47482 17.0171 9.68295 17.2154C9.89107 17.4138 10.0077 17.6825 10.0072 17.9624ZM5.56046 17.9544C5.55995 18.2344 5.44235 18.5026 5.23351 18.7002C5.02467 18.8978 4.74171 19.0085 4.44687 19.008C3.85719 19.0069 3.29207 18.7835 2.87582 18.3868C2.45956 17.9901 2.22628 17.4528 2.22729 16.8929C2.22779 16.6129 2.3454 16.3446 2.55423 16.147C2.76307 15.9495 3.04604 15.8388 3.34088 15.8393C3.63571 15.8398 3.91828 15.9515 4.1264 16.1499C4.33453 16.3482 4.45117 16.6169 4.45067 16.8968C4.7455 16.8974 5.02807 17.0091 5.23619 17.2074C5.44432 17.4058 5.56096 17.6745 5.56046 17.9544ZM3.34847 11.6171C3.64331 11.6176 3.92587 11.7293 4.134 11.9277C4.34212 12.126 4.45876 12.3947 4.45826 12.6746L4.45636 13.7302C4.45586 14.0101 4.33825 14.2784 4.12941 14.476C3.92057 14.6736 3.63761 14.7843 3.34277 14.7837C3.04794 14.7832 2.76537 14.6715 2.55725 14.4732C2.34912 14.2748 2.23248 14.0061 2.23298 13.7262L2.23488 12.6706C2.23538 12.3907 2.35299 12.1224 2.56183 11.9248C2.77067 11.7273 3.05363 11.6166 3.34847 11.6171Z" fill="black"/>
</svg>
