<svg width="18" height="19" viewBox="0 0 18 19" fill="none" xmlns="http://www.w3.org/2000/svg">
<path fill-rule="evenodd" clip-rule="evenodd" d="M10 0.95C10 0.698044 9.89464 0.456408 9.70711 0.278248C9.51957 0.100089 9.26522 0 9 0C8.73478 0 8.48043 0.100089 8.29289 0.278248C8.10536 0.456408 8 0.698044 8 0.95V18.05C8 18.302 8.10536 18.5436 8.29289 18.7218C8.48043 18.8999 8.73478 19 9 19C9.26522 19 9.51957 18.8999 9.70711 18.7218C9.89464 18.5436 10 18.302 10 18.05V0.95ZM0 3.8C0 3.29609 0.210714 2.81282 0.585786 2.4565C0.960859 2.10018 1.46957 1.9 2 1.9H6V3.8H2V15.2H6V17.1H2C1.46957 17.1 0.960859 16.8998 0.585786 16.5435C0.210714 16.1872 0 15.7039 0 15.2V3.8ZM11 2.85C11 2.59804 11.1054 2.35641 11.2929 2.17825C11.4804 2.00009 11.7348 1.9 12 1.9H13C13.2652 1.9 13.5196 2.00009 13.7071 2.17825C13.8946 2.35641 14 2.59804 14 2.85C14 3.10196 13.8946 3.34359 13.7071 3.52175C13.5196 3.69991 13.2652 3.8 13 3.8H12C11.7348 3.8 11.4804 3.69991 11.2929 3.52175C11.1054 3.34359 11 3.10196 11 2.85ZM15 2.85C15 2.59804 15.1054 2.35641 15.2929 2.17825C15.4804 2.00009 15.7348 1.9 16 1.9C16.5304 1.9 17.0391 2.10018 17.4142 2.4565C17.7893 2.81282 18 3.29609 18 3.8C18 4.05196 17.8946 4.29359 17.7071 4.47175C17.5196 4.64991 17.2652 4.75 17 4.75C16.7348 4.75 16.4804 4.64991 16.2929 4.47175C16.1054 4.29359 16 4.05196 16 3.8C15.7348 3.8 15.4804 3.69991 15.2929 3.52175C15.1054 3.34359 15 3.10196 15 2.85ZM17 5.7C17.2652 5.7 17.5196 5.80009 17.7071 5.97825C17.8946 6.15641 18 6.39804 18 6.65V7.6C18 7.85195 17.8946 8.09359 17.7071 8.27175C17.5196 8.44991 17.2652 8.55 17 8.55C16.7348 8.55 16.4804 8.44991 16.2929 8.27175C16.1054 8.09359 16 7.85195 16 7.6V6.65C16 6.39804 16.1054 6.15641 16.2929 5.97825C16.4804 5.80009 16.7348 5.7 17 5.7ZM17 10.45C17.2652 10.45 17.5196 10.5501 17.7071 10.7282C17.8946 10.9064 18 11.148 18 11.4V12.35C18 12.602 17.8946 12.8436 17.7071 13.0217C17.5196 13.1999 17.2652 13.3 17 13.3C16.7348 13.3 16.4804 13.1999 16.2929 13.0217C16.1054 12.8436 16 12.602 16 12.35V11.4C16 11.148 16.1054 10.9064 16.2929 10.7282C16.4804 10.5501 16.7348 10.45 17 10.45ZM17 14.25C17.2652 14.25 17.5196 14.3501 17.7071 14.5282C17.8946 14.7064 18 14.948 18 15.2C18 15.7039 17.7893 16.1872 17.4142 16.5435C17.0391 16.8998 16.5304 17.1 16 17.1C15.7348 17.1 15.4804 16.9999 15.2929 16.8218C15.1054 16.6436 15 16.402 15 16.15C15 15.898 15.1054 15.6564 15.2929 15.4782C15.4804 15.3001 15.7348 15.2 16 15.2C16 14.948 16.1054 14.7064 16.2929 14.5282C16.4804 14.3501 16.7348 14.25 17 14.25ZM11 16.15C11 15.898 11.1054 15.6564 11.2929 15.4782C11.4804 15.3001 11.7348 15.2 12 15.2H13C13.2652 15.2 13.5196 15.3001 13.7071 15.4782C13.8946 15.6564 14 15.898 14 16.15C14 16.402 13.8946 16.6436 13.7071 16.8218C13.5196 16.9999 13.2652 17.1 13 17.1H12C11.7348 17.1 11.4804 16.9999 11.2929 16.8218C11.1054 16.6436 11 16.402 11 16.15Z" fill="black"/>
</svg>
