<svg width="18" height="19" viewBox="0 0 18 19" fill="none" xmlns="http://www.w3.org/2000/svg">
<path d="M1.17442 8.35663C1.37155 8.26275 1.45714 8.11756 1.44873 7.87886C1.42313 7.57175 1.07128 7.14529 1.07128 6.01109C1.07128 4.18625 2.25447 2.90686 4.10589 2.90686H4.13149V4.0749C4.13149 4.7488 4.66329 4.90236 5.17753 4.51883L7.51758 2.82171C7.91186 2.54007 7.91186 2.20749 7.51758 1.91748L5.17753 0.211995C4.65451 -0.180627 4.13149 -0.0267075 4.13149 0.663929V1.91748H4.09747C1.63709 1.91748 0 3.56366 0 6.00272C0 6.91532 0.18836 7.66563 0.454259 8.11756C0.599827 8.365 0.908884 8.48435 1.17442 8.35663ZM14.9752 19C16.4411 19 17.1781 18.3006 17.1781 16.808V8.37337C17.1781 6.88111 16.4411 6.18174 14.9752 6.18174H6.48032C5.0144 6.18174 4.27742 6.88111 4.27742 8.37337V16.808C4.27742 18.3006 5.01477 19 6.48032 19H14.9752ZM14.9496 17.6267H6.50629C5.91451 17.6267 5.65775 17.388 5.65775 16.7825V8.39884C5.65775 7.79371 5.91451 7.55465 6.50629 7.55465H14.9496C15.541 7.55465 15.7981 7.79371 15.7981 8.39884V16.7825C15.7981 17.388 15.541 17.6267 14.9496 17.6267Z" fill="black"/>
</svg>
